<svg width="75" height="75" viewBox="0 0 75 75" fill="none" xmlns="http://www.w3.org/2000/svg">
<path d="M67.9688 14.0625H7.03125H6.84375C6.68044 14.0404 6.51488 14.0404 6.35156 14.0625L5.95312 14.2266C5.82562 14.288 5.70729 14.3669 5.60156 14.461C5.46822 14.5517 5.34965 14.6623 5.25 14.7891L5.10938 14.9297C5.10055 14.9998 5.10055 15.0706 5.10938 15.1407C5.03282 15.2828 4.97003 15.4319 4.92187 15.586C4.82352 15.7726 4.74497 15.969 4.6875 16.1719C4.6875 16.1719 4.6875 16.4063 4.6875 16.4063V58.5938C4.6875 59.2154 4.93443 59.8115 5.37397 60.2511C5.81351 60.6906 6.40965 60.9375 7.03125 60.9375H67.9688C68.5904 60.9375 69.1865 60.6906 69.626 60.2511C70.0656 59.8115 70.3125 59.2154 70.3125 58.5938V16.4063C70.3125 15.7847 70.0656 15.1885 69.626 14.749C69.1865 14.3095 68.5904 14.0625 67.9688 14.0625ZM37.5 34.711L14.5312 18.75H63.4922L37.5 34.711ZM9.375 56.25V20.8829L36.1641 39.4219C36.2998 39.5015 36.4408 39.572 36.5859 39.6328H36.7734C37.0038 39.7388 37.2487 39.8099 37.5 39.8438C37.8333 39.8349 38.1609 39.755 38.4609 39.6094H38.625L65.625 22.9454V56.25H9.375Z" fill="black"/>
</svg>
