<svg width="40" height="40" viewBox="0 0 40 40" fill="none" xmlns="http://www.w3.org/2000/svg">
<path d="M27.0295 14.3041L24.5191 26.143C24.3297 26.9786 23.8358 27.1864 23.1339 26.7929L19.309 23.9743L17.4634 25.7493C17.2592 25.9536 17.0883 26.1244 16.6947 26.1244L16.9695 22.2288L24.0586 15.8229C24.3669 15.5481 23.9918 15.3959 23.5796 15.6707L14.8156 21.189L11.0426 20.0082C10.2219 19.7519 10.2071 19.1874 11.2134 18.7938L25.9711 13.1083C26.6543 12.8521 27.2522 13.2606 27.0295 14.3041Z" fill="black"/>
<path d="M33.9815 19.9815C33.9815 12.2086 27.6803 5.90741 19.9074 5.90741C12.1345 5.90741 5.83334 12.2086 5.83334 19.9815C5.83334 27.7544 12.1345 34.0556 19.9074 34.0556C27.6803 34.0556 33.9815 27.7544 33.9815 19.9815Z" stroke="black" stroke-width="2"/>
</svg>
